<?xml version="1.0" encoding="UTF-8"?><svg id="Layer_3" xmlns="http://www.w3.org/2000/svg" viewBox="0 0 395.37 691.31"><defs><style>.cls-1{fill:none;stroke:#fff;stroke-linecap:round;stroke-linejoin:round;stroke-width:2px;}</style></defs><path class="cls-1" d="M218.52,85.9c-.6,1.73-1.36,4.29-1.84,7.46-1.54,10.31,1.28,18.33,3.46,25.33,0,0,3.3,10.6,6.97,27.54,4.87,22.42-3.16,26.58-.69,46.69,3.14,25.53,16.91,25.44,20.32,50.92.84,6.3,2.72,26.6-7.95,45.46-8.95,15.82-18.21,15.56-45.66,37.65-25.36,20.4-38.03,30.61-41.39,45.66-5.63,25.3,12.39,54.61,14.89,58.67,6.19,10.07,12.14,15.58,15.28,28.11,3.02,12.06,1.53,22.94-.26,30.35"/><path class="cls-1" d="M253.63,240.2c4.22,8.43,11.22,21.04,21.86,34.9,17.91,23.32,24.24,21.63,38.18,40.39,15.98,21.51,10.92,28.12,32.4,63.85,11.04,18.37,11.97,15.94,19.96,30.58,4.05,7.41,15.63,29.69,22.19,61.72,6.08,29.72,9.13,44.58,3.33,57.63-5.2,11.71-14.58,20.11-12.04,32.56,1.7,8.35,7.17,10.68,5.95,16.69-1.04,5.12-5.74,7.05-24.14,16.84-16.51,8.78-24.76,13.17-27.32,14.93-10.83,7.44-15.34,12.93-19.7,11.12-3.67-1.53-5.12-7.35-4.76-11.44.49-5.57,4.56-10.31,5.72-9.85,1.06.42.5,5.54-1.27,9.53-3.04,6.83-11.49,14.42-18.11,11.75-4.08-1.64-6.11-6.64-6.35-10.48-.37-5.92,3.36-11.77,9.53-14.61-.95,2.06-2.48,5.21-4.6,8.93-4.08,7.16-6.29,11.04-8.42,10.76-2.45-.31-4.47-6.07-4.13-11.12.66-9.8,10.15-16.18,13.02-18.11,8.09-5.43,10.43-2.85,22.69-7.82,15.38-6.23,18.49-13.04,27.92-11.85,5.28.66,10.9,3.63,10.7,5.69-.2,2.12-6.51,3.12-7.74,3.32-16.83,2.67-52.32-23.23-58.55-60.54-1.48-8.84-5.21-31.21,10.28-47.98,18.87-20.42,49.09-13.95,50.6-13.6-10.2-5.71-24.56-11.42-37.8-6.6-7.07,2.58-14.7,12.28-29.68,31.59-20.51,26.45-26.64,34.43-35.92,34.41-5.64-.01-12.24-2.99-14.31-7.82-2.42-5.65,1.98-12.36,4-15.84,3.96-6.85,3.38-9.28,8.28-48.99,2.81-22.72,6.14-45.38,9.18-68.08,6.79-50.61,7.04-47.62,7.31-54.32.74-18.89-1.16-46.51-14.46-81,9.26,17.75,30.11,63.61,22.58,122.91-4.9,38.61-19.85,67.33-30.04,83.57-11.61,58.99-18.94,88.06-23.82,102.61-2.26,6.73-6.56,17.98-6.99,33.67-.28,10.32,1.39,12.08,0,19.7-2.74,14.97-10.53,15.3-14.5,29.86-3.19,11.7,1.43,12.98-2.02,30.81-2.81,14.51-6.97,19.39-9.85,21.92-1.06.93-9.81,8.45-15.88,5.08-5.23-2.9-5.5-12.24-2.81-17.8,1.14-2.36,3.26-4.97,4.18-4.6,1.19.47.23,5.82-.7,9.07-.64,2.22-1.57,5.47-4.17,8.89-1.55,2.04-5.16,6.79-11.44,7.94-.69.13-8.47,1.47-10.8-2.22-2.03-3.21.95-8.83,5.72-17.79,2.66-5,4.32-7.12,3.77-7.62-.77-.71-5.89,1.83-7.9,6.35-1.86,4.17.48,6.52-1.59,10.17-1.7,2.98-5.5,5.34-7.94,4.45-3.94-1.44-3.5-11-3.45-12.12.62-13.42,10.58-17.4,22.45-35.56,2.35-3.6,10.76-16.91,15.62-35.23,2.03-7.66,1.21-7.77,4.4-25.79,3.29-18.54,4.49-20.29,7.04-34.57,4.26-23.88,6.38-35.83,2.86-43.84-4.17-9.47-10.02-8.9-31.49-23.6-33.24-22.76-44.73-41.6-47.29-45.97-5.8-9.88-11.17-22.88-9.21-24.14,1.67-1.07,8.91,6.18,13.46,13.06,6.11,9.25,10.5,22.63,8.14,47.61-2.68,28.34-12.47,54.93-24.78,93.39-1.85,5.78-3.11,9.86-2.96,15.52.23,8.06,3.1,10.69,1.05,15.29-2.24,5.02-6.98,4.88-8.89,10.48-.82,2.38-.34,3.51,0,8.43.62,9.27,1.28,19.04-3.49,22.39-2.29,1.61-5.59,1.56-6.25.51-.82-1.3,2.68-3.71,2.02-6.89-.42-2.04-2.43-3.82-3.4-3.47-1.5.54.08,5.92,0,11.75-.23,15.84-12.68,26.88-14.61,28.59-4.52,4-9.1,8.07-14.61,6.99-6.42-1.26-11.9-9.1-10.33-15.31,1.29-5.11,7.23-8.55,8.32-7.69,1.24.98-3.04,8.17-3.82,9.47-3.36,5.63-6.24,10.46-11.96,12.57-.72.27-9.07,3.22-13.66-1.27-4.46-4.37-2.36-12.84.78-17.51,3.18-4.73,8.66-7.4,9.38-6.63.74.79-3.05,5.75-6.64,9.16-3.35,3.18-9.8,8.12-11.47,6.72-1.86-1.55,2.23-10.97,8.2-18.1,7.68-9.17,14.74-10.08,22.3-15.57,3.75-2.73,10.23-8.48,19.06-33.04,11.43-31.79,14.6-61.12,15.74-80.06,1.6-26.62-1.22-25.8,1.09-51.14,2.77-30.36,6.92-32.7,6.04-50.83-1.37-28.09-11.56-26.75-13.02-54.96-1.63-31.3,6.88-59.03,6.88-59.03,2.5-8.14,5.31-14.79,4.88-25.15-.5-12.02-4.85-16.42-6.99-29.23-2.4-14.38,2.09-14.82,1.27-30.81-1.33-26.14-13.62-31.01-11.75-54,1.43-17.64,1.8-19.76,1.8-19.76,1.23-7.16,2.89-13.05.63-20.2-.89-2.82-2.12-4.99-3.06-6.42"/><path class="cls-1" d="M175.2,553.24s-5.64-2.17-11.29,5.35-9.84,15.05-3.04,17.8,9.26.72,9.26.72"/><path class="cls-1" d="M247.41,565.98c-2.98-4.58-17.52-12.25-26.68-29.43"/><path class="cls-1" d="M210.29,577.83c13.78.46,26.63-10.35,37.12-10.18s8.05,9.07,30.37,9.42,46.56-7.32,46.56-7.32"/><path class="cls-1" d="M195.87,274.65c-14.55,11.64-41.98,34.92-55.28,26.6-13.3-8.31,7.27-35.95,24.73-52.79s26.26-38.24,29.34-57.15c2.02-12.42,5.14-23.04,8.21-31.52,2.22-6.12,2.93-6.31,4.64-11.5,1.26-3.82,4.82-15.48,4.36-31.17-.24-8.39-.43-12.67-3.33-16.63-4.18-5.7-10.86-7.36-13.89-7.9"/><path class="cls-1" d="M84.59,108.37c1.96,1.22,3.77,1.58,5.81,1.98,3.05.6,6.65,1.31,10.25-.19,5.23-2.18,7.19-7.63,7.61-8.9,1.6-2.15,5.13-7.55,4.77-14.7-.41-8.3-5.99-17.74-12.25-17.92-3.27-.1-6.14,2.35-8.09,4.01-3.26,2.78-3.19,4.5-6.11,8.04-4.81,5.84-8.17,5-11.33,9.36-1.76,2.42-3.46,6.46-2.71,13.41,1.44-2.81,3.89-6.47,7.99-9.41,2.1-1.5,4.65-3.33,8.38-3.61.81-.06,7.48-.47,10.06,3.87,1.41,2.37.94,5.05.64,6.71-.29,1.62-.75,4.27-2.93,6.03-2.85,2.29-6.69,1.49-7.38,1.34-7.07-1.48-10.22-9.8-10.83-9.43-.5.3,1.1,6.31,6.12,9.43Z"/><path class="cls-1" d="M120.24,176.67c6.27-.85,10.82-3.91,11.46-7.68.36-2.16-.47-5.16-2.21-5.73-1.98-.64-4.65,1.99-5.73,4.43-1.84,4.17.64,8.53.91,8.98,4.12,6.98,14.7,6.44,15.62,6.38,9.03-.59,14.26-7.26,14.97-8.2,1.3-1.71,5.5-7.27,4.04-14.32-1.42-6.82-7.43-11.56-12.63-12.63-1.44-.29-3.74-.28-8.33-.26-4,.02-6,.03-7.55.26-6.38.95-15.24,6.88-14.97,14.45.21,6.01,6.08,9.97,7.16,10.67"/><path class="cls-1" d="M158.9,163.65s-4.3,8.59-6.77,8.2-7.29-2.84-7.29-6.5,2.21-3.01,3.51-2.61,5.6,3.38,3.51,7.55"/><path class="cls-1" d="M140.29,192.28c-12.77,9.51-19.47,12.54-25,13.13-3.27.35-4.93.31-6.42-.2-9.32-3.22-11.09-19.38-11.54-23.42-1.44-13.13,2-23.99,5.35-34.21,5.07-15.46,8.09-19.01,7.52-27.72-.72-11.14-6.22-15.77-6.22-15.77-1.16-2.85-2.32-5.69-3.47-8.54"/><path class="cls-1" d="M138.9,167.15l1.39,22.15s.99,4.57,6.96,6.56,16.31,5.37,16.31,5.37c0,0,10.34,6.17,16.9-8.15s3.18-35.2-8.55-53.3-11.73-22.43-11.54-28.71,6.76-18.47,6.76-18.47c0,0,2.67-7.34,9.48-7.02s10.51,1.75,9.28,7.46-1.95,7.27-9.47,7.53-9.77-6.56-10.33-9.36"/><path class="cls-1" d="M166.1,91.2s3.55-9.25,10.02-8.77,11.9,3.62,11.55,8.77-1.46,13.22-11.41,13.15-11.27-4.1-11.27-4.1c0,0-7.51-.63-9.74-3.55s-6.47-11.83-6.26-18.65,4.04-15.1,11.27-15.17,10.62,7.93,13.87,9.32,9.16,4.04,11.6,6.82,4.38,6.68,6.75,9.74,18.3,11.97,16.91-3.76-12.46-28.46-18.58-35.99-20.68-30.26-8.81-37.53,22.72,18.77,26.17,31.02,11.23,39.06,19.79,38.55,3.57-11.11,9.32-17.87,14.81-15.96,15.96-22.98,3.32-17.87-16.34-24.64-8.3-.51-21.06-4.34S194.37,0,183.26,0s-17.62,13.02-18.26,15.57-1.4,7.4-1.4,7.4c0,0-9.83-1.91-17.23-1.28s-18.64,4.21-21.06,4.21-10.72-1.91-16.47-1.15-17.49,4.98-17.49,4.98c0,0-9.06-20.94-25.92-20.81s-22.21,11.36-34.09,18.26S.71,42.26,1.34,51.32s3.83,15.45,11.74,22.09,9.57,10.6,12.13,13.91,4.6,6.89,6.89,6.64,9.83-11.62,10.85-21.57-.13-27.19,4.34-36.64,10.21-19.28,18.13-18,12.77,13.28,10.85,22.47-19.79,34.85-19.15,53.36,13.91,10.78,13.91,10.78"/><path class="cls-1" d="M65.51,114.15s-4.34,6.94-2.95,16.82.17,16.05,22.2,40.89"/><path class="cls-1" d="M116.32,208.24c13.09,9.35,39.05,9.02,51.04-3.08"/></svg>