<?xml version="1.0" encoding="UTF-8"?><svg id="Layer_3" xmlns="http://www.w3.org/2000/svg" viewBox="0 0 76.75 278.16"><defs><style>.cls-1{fill:none;stroke:#fff;stroke-linecap:round;stroke-linejoin:round;stroke-width:2px;}</style></defs><path class="cls-1" d="M38.52,269.32c9.21-12.72,35.79-52.56,29.07-96.13-3.44-22.35-12.65-40.96-12.65-40.96-10.53-21.3-18.67-23.14-23.1-39.73-.98-3.68-8.13-30.5,5.41-47.46,3.31-4.15,20.28-23.27,28.06-29.22.62-.47,2.88-2.16,2.5-3.36-.44-1.4-4.22-1.36-5.45-1.35-7.22.07-32.51,10.48-45.34,38.59-2.38,5.2-8.88,21-6.8,43.01,3.85,40.66,32.24,51.95,33.29,87.19.29,9.79-1.46,23.79-11.19,40.94"/></svg>